<svg width="36" height="40" viewBox="0 0 36 40" fill="none" xmlns="http://www.w3.org/2000/svg">
<rect x="0.5" y="2.5" width="35" height="35" rx="7.5" fill="white"/>
<rect x="0.5" y="2.5" width="35" height="35" rx="7.5" stroke="white"/>
<path d="M18.8333 14.1666C18.8333 13.7064 18.4602 13.3333 18 13.3333C17.5397 13.3333 17.1666 13.7064 17.1666 14.1666V19.1666H12.1666C11.7064 19.1666 11.3333 19.5397 11.3333 20C11.3333 20.4602 11.7064 20.8333 12.1666 20.8333H17.1666V25.8333C17.1666 26.2935 17.5397 26.6666 18 26.6666C18.4602 26.6666 18.8333 26.2935 18.8333 25.8333V20.8333H23.8333C24.2935 20.8333 24.6666 20.4602 24.6666 20C24.6666 19.5397 24.2935 19.1666 23.8333 19.1666H18.8333V14.1666Z" fill="#101828"/>
</svg>
