<svg width="152" height="20" viewBox="0 0 152 20" fill="none" xmlns="http://www.w3.org/2000/svg">
<path d="M8.913 5.40687L0.576271 13.4358V15.2622C0.576271 17.4925 0.80678 18.6076 1.2678 18.6076C1.99774 18.6076 3.09906 18.5654 4.57175 18.481C6.04444 18.3966 7.14576 18.3544 7.87571 18.3544C8.09341 18.3544 8.42637 18.3665 8.87458 18.3906C9.02825 18.4027 9.62373 18.4448 10.661 18.5172C11.3782 18.5775 11.9736 18.6076 12.4475 18.6076C13.7665 18.6076 14.6501 18.1073 15.0983 17.1067C15.38 16.4798 15.5209 15.425 15.5209 13.9421C15.5209 13.5443 15.4889 13.2791 15.4249 13.1465C15.3096 12.9174 15.0535 12.8089 14.6565 12.821L11.2757 12.8933C10.1232 12.9174 9.36121 12.9295 8.98983 12.9295C8.34953 12.9415 7.99096 12.9415 7.91412 12.9295C9.68136 11.0368 11.1156 9.54189 12.2169 8.44485C13.9842 6.68475 14.8678 5.78059 14.8678 5.73237C14.8678 4.98493 14.7846 4.14105 14.6181 3.20072C14.4388 2.17601 14.2147 1.36227 13.9458 0.759495C12.5371 0.614829 11.3269 0.542496 10.3153 0.542496C6.97288 0.542496 3.98267 0.675106 1.34463 0.940326C1.20377 3.01386 1.08211 4.42435 0.979661 5.17179C1.61996 5.34057 2.63164 5.42495 4.01469 5.42495H5.22486C5.48098 5.42495 5.89077 5.41893 6.45424 5.40687C7.58117 5.38276 8.40075 5.38276 8.913 5.40687ZM0 15.5154V13.2188L6.64633 6.81736C6.50546 6.82942 6.22373 6.82942 5.80113 6.81736C3.62411 6.76914 2.14501 6.64256 1.36384 6.43761L0.480226 5.60579C0.46742 5.60579 0.422599 5.59373 0.345763 5.56962C0.384181 5.18385 0.416196 4.8704 0.441808 4.6293L0.557062 3.34539C0.621092 2.64617 0.665913 2.16395 0.691525 1.89873L0.80678 0.433997C3.66252 0.144666 6.83202 0 10.3153 0C11.3653 0 12.71 0.0843882 14.3492 0.253164L14.4068 0.415913L15.2712 1.21157C15.9883 2.81495 16.3469 4.62327 16.3469 6.63653C16.3469 6.79325 15.4185 7.81194 13.5616 9.69259L10.9107 12.3689H11.0836C11.1348 12.3689 11.1925 12.3629 11.2565 12.3508L14.6373 12.2785C15.252 12.2664 15.681 12.4714 15.9243 12.8933L16.635 13.5624C16.8783 13.7914 17 14.2194 17 14.8463C17 16.4014 16.8463 17.5226 16.539 18.2098L16.5198 18.1917C15.9819 19.3972 14.9446 20 13.4079 20C12.8957 20 12.5627 19.994 12.409 19.9819L10.6226 19.8373C9.87985 19.777 9.28437 19.7468 8.83616 19.7468C8.10621 19.7468 7.0049 19.789 5.5322 19.8734C4.05951 19.9578 2.95819 20 2.22825 20C2.03616 20 1.86328 19.9277 1.7096 19.783L0.979661 19.0958C0.326554 18.8427 0 17.6492 0 15.5154ZM1.32542 19.1682L2.22825 20L1.32542 19.1501V19.1682Z" fill="#6832E3"/>
<g clip-path="url(#clip0_2005_343)">
<path d="M26.733 5.66819V2.90863H38.7414V5.04298L31.0017 15.2404H38.9355V18H26.539V15.8656L34.2787 5.66819H26.733ZM50.9895 15.4345H51.3345V18H49.7822C48.2084 18 47.7125 17.2454 47.7341 16.189C46.958 17.4179 45.8369 18.1294 44.1122 18.1294C41.7191 18.1294 39.9944 16.9867 39.9944 14.8739C39.9944 12.524 41.7622 11.1873 45.0823 11.1873H47.2814V10.6483C47.2814 9.65663 46.5699 9.00985 45.2979 9.00985C44.1122 9.00985 43.3145 9.54883 43.1851 10.3681H40.2531C40.4687 8.21217 42.4521 6.78926 45.3842 6.78926C48.4887 6.78926 50.2781 8.16905 50.2781 10.8208V14.7446C50.2781 15.3267 50.5152 15.4345 50.9895 15.4345ZM47.2814 13.4295V13.2139H45.0608C43.7888 13.2139 43.0558 13.7313 43.0558 14.6583C43.0558 15.4345 43.681 15.9303 44.6943 15.9303C46.2896 15.9303 47.2598 14.9386 47.2814 13.4295ZM60.5099 8.2984V2.90863H63.5497V18H60.898L60.5961 16.4693C59.8631 17.4179 58.7852 18.1294 57.1898 18.1294C54.2146 18.1294 52.0372 15.9519 52.0372 12.4378C52.0372 9.00985 54.2146 6.78926 57.1682 6.78926C58.6989 6.78926 59.7984 7.39292 60.5099 8.2984ZM57.8581 15.6501C59.5182 15.6501 60.553 14.3565 60.553 12.4809C60.553 10.5837 59.5182 9.26856 57.8581 9.26856C56.1981 9.26856 55.1417 10.5621 55.1417 12.4593C55.1417 14.3565 56.1981 15.6501 57.8581 15.6501ZM68.2346 18L64.6127 6.91862H67.825L70.0456 14.723L72.1368 6.91862H74.8748L76.9014 14.7446L79.1651 6.91862H82.2696L78.6261 18H75.3922L73.4519 11.3167L71.4685 18H68.2346ZM93.3919 15.4345H93.7369V18H92.1846C90.6108 18 90.1149 17.2454 90.1365 16.189C89.3604 17.4179 88.2393 18.1294 86.5146 18.1294C84.1215 18.1294 82.3968 16.9867 82.3968 14.8739C82.3968 12.524 84.1646 11.1873 87.4847 11.1873H89.6837V10.6483C89.6837 9.65663 88.9723 9.00985 87.7003 9.00985C86.5146 9.00985 85.7169 9.54883 85.5875 10.3681H82.6555C82.8711 8.21217 84.8545 6.78926 87.7865 6.78926C90.8911 6.78926 92.6805 8.16905 92.6805 10.8208V14.7446C92.6805 15.3267 92.9176 15.4345 93.3919 15.4345ZM89.6837 13.4295V13.2139H87.4632C86.1912 13.2139 85.4582 13.7313 85.4582 14.6583C85.4582 15.4345 86.0834 15.9303 87.0966 15.9303C88.692 15.9303 89.6622 14.9386 89.6837 13.4295ZM93.7918 18L97.9095 12.3515L93.9858 6.91862H97.4568L99.7421 10.1956L102.092 6.91862H105.369L101.467 12.3515L105.585 18H102.114L99.5696 14.529L97.0472 18H93.7918Z" fill="#201E1E"/>
</g>
<defs>
<clipPath id="clip0_2005_343">
<rect width="135" height="18" fill="white" transform="translate(17 1)"/>
</clipPath>
</defs>
</svg>
