<svg width="1135" height="169" viewBox="0 0 1135 169" fill="none" xmlns="http://www.w3.org/2000/svg">
<g clip-path="url(#clip0_2014_344)">
<rect width="1135" height="169" fill="#F0EBFC"/>
<path fill-rule="evenodd" clip-rule="evenodd" d="M1020.92 21.0552C1065.93 8.62649 1107.07 21.1409 1081.67 72.5661C1074.25 87.5493 1060.69 99.4438 1043.3 104.245L1041.36 104.739C1040.72 104.833 1040.05 104.975 1039.4 105.157L1039.05 105.253L1037.91 105.485L1037.95 105.64C1030.85 108.39 1026.85 116.19 1028.92 123.687C1031 131.222 1038.42 135.825 1045.93 134.543L1045.98 134.736C1047.75 134.372 1049.58 133.909 1051.4 133.408C1080.96 125.247 1104.53 103.1 1113.53 74.6674C1122.46 46.3332 1133.28 48.1698 1145.96 91.9555C1160.89 146.053 1129.14 202.02 1075.04 216.955C1020.95 231.891 964.98 200.142 950.045 146.045C935.109 91.9469 966.858 35.9804 1020.96 21.0446L1020.92 21.0552Z" fill="#E8E0FA"/>
</g>
<defs>
<clipPath id="clip0_2014_344">
<rect width="1135" height="169" fill="white"/>
</clipPath>
</defs>
</svg>
